# xmcd
#
# Track frame offsets: 
#        150
#        32880
#        55615
#        74435
#        102420
#        121242
#        140112
#        165167
#
# Disc length: 2699 seconds
#
# Revision: 4
# Processed by: cddbd v1.5.2PL0 Copyright (c) Steve Scherf et al.
# Submitted via: ExactAudioCopy v0.99pb5
#
DISCID=6b0a8908
DTITLE=Θεοδωράκης  - Επιτάφιος
DYEAR=1960
DGENRE=Ελληνικά
TTITLE0=Πού πέταξε τ' αγόρι μου
TTITLE1=Χείλι μου μοσχομύριστο
TTITLE2=Μέρα Μαγιού μου μίσεψες
TTITLE3=Βασίλεψες, αστέρι μου
TTITLE4=Είσουν καλός κι είσουν γλυκός
TTITLE5=Στο παραθύρι στεκόσουν
TTITLE6=Νάχα τ' αθάνατο νερό
TTITLE7=Γλυκέ μου, εσύ δε χάθηκες
EXTD=YEAR: 2004
EXTT0=
EXTT1=
EXTT2=
EXTT3=
EXTT4=
EXTT5=
EXTT6=
EXTT7=
PLAYORDER=
